<svg aria-hidden="true" style="position: absolute; width: 0; height: 0; overflow: hidden;" version="1.1" xmlns="http://www.w3.org/2000/svg" xmlns:xlink="http://www.w3.org/1999/xlink">
<defs>
<symbol id="button" viewBox="0 0 32 32">
<path d="M18.738 10.35c-0.369 0.194-0.475 0.756-0.212 1.069 0.081 0.094 1.163 0.988 2.4 1.988l2.25 1.813-8.381 0.031c-6.656 0.025-8.419 0.050-8.525 0.113-0.425 0.244-0.425 1.031 0 1.275 0.106 0.063 1.869 0.087 8.525 0.113l8.381 0.031-2.25 1.813c-1.238 0.994-2.319 1.894-2.4 1.988-0.269 0.319-0.15 0.881 0.225 1.075 0.238 0.125 0.563 0.119 0.75-0.012 0.469-0.319 6.488-5.219 6.525-5.3 0.050-0.131 0.050-0.556 0-0.688-0.038-0.081-6.056-4.981-6.525-5.3-0.188-0.131-0.538-0.131-0.762-0.006z"></path>
</symbol>
</defs>
</svg>
